<svg xmlns="http://www.w3.org/2000/svg" width="41.638" height="28.109" viewBox="0 0 41.638 28.109">
  <path id="mail" d="M41.454,103.717l-15.337-12.5L41.526,78.184a1.966,1.966,0,0,1,.112.627V102.9a1.893,1.893,0,0,1-.184.812ZM2.081,104.909H39.558a2.114,2.114,0,0,0,.646-.109L24.852,92.291l-2,1.69a3.37,3.37,0,0,1-4.229,0l-2-1.69L1.317,104.762A2.117,2.117,0,0,0,2.081,104.909Zm-2-26.62A1.955,1.955,0,0,0,0,78.808V102.9a1.941,1.941,0,0,0,.143.717l15.219-12.4ZM21.755,92.774,40.418,76.985a2.116,2.116,0,0,0-.858-.185H2.081a2.117,2.117,0,0,0-.957.235l18.6,15.738A1.722,1.722,0,0,0,21.755,92.774Z" transform="translate(0 -76.8)" fill="#576bff"/>
</svg>
