<?xml version="1.0" standalone="no"?>
<!DOCTYPE svg PUBLIC "-//W3C//DTD SVG 20010904//EN"
 "http://www.w3.org/TR/2001/REC-SVG-20010904/DTD/svg10.dtd">
<svg version="1.0" xmlns="http://www.w3.org/2000/svg"
 width="511.000000pt" height="590.000000pt" viewBox="0 0 511.000000 590.000000"
 preserveAspectRatio="xMidYMid meet">
<metadata>
Created by potrace 1.16, written by Peter Selinger 2001-2019
</metadata>
<g transform="translate(0.000000,590.000000) scale(0.100000,-0.100000)"
fill="#000000" stroke="none">
<path d="M2490 5866 c-45 -27 -233 -136 -405 -236 -16 -9 -165 -95 -330 -190
-165 -96 -399 -231 -520 -300 -278 -161 -622 -359 -835 -482 -91 -52 -208
-120 -260 -150 -52 -30 -105 -61 -118 -69 l-22 -14 0 -1475 0 -1476 53 -31
c28 -17 156 -91 282 -164 127 -72 284 -163 350 -202 66 -38 145 -83 175 -100
30 -17 87 -49 125 -72 39 -23 90 -54 115 -67 25 -14 146 -84 270 -155 124 -72
317 -183 430 -248 113 -65 210 -121 215 -125 6 -4 30 -19 55 -32 25 -14 117
-67 205 -118 228 -132 277 -160 280 -160 4 0 48 25 385 220 146 84 285 164
310 178 25 13 50 28 55 32 6 4 134 78 285 165 151 87 361 208 465 268 105 60
204 117 220 127 17 9 143 82 280 162 138 79 319 184 403 232 l152 88 0 1478 0
1478 -172 100 c-168 96 -603 347 -663 382 -16 10 -131 76 -255 147 -185 107
-367 212 -715 413 -16 10 -115 67 -220 127 -104 60 -265 153 -357 206 -92 53
-171 97 -175 96 -4 0 -33 -15 -63 -33z m113 -1297 c12 -6 28 -18 33 -27 6 -9
75 -276 154 -592 78 -316 146 -578 149 -582 3 -4 166 180 361 408 301 352 359
415 386 420 44 8 85 -14 106 -56 22 -44 59 76 -394 -1253 -39 -114 -68 -210
-65 -213 3 -3 56 34 117 83 61 48 175 139 253 200 170 135 144 114 247 197 47
38 95 73 107 79 29 13 86 1 107 -22 42 -46 37 -66 -124 -426 -83 -187 -157
-353 -164 -370 -8 -16 -78 -174 -156 -350 -78 -176 -180 -405 -226 -510 -92
-208 -112 -235 -173 -235 -77 0 -66 -31 -281 829 -107 430 -198 781 -201 781
-3 0 -56 -58 -117 -129 -61 -71 -121 -132 -133 -136 -55 -18 -82 0 -199 136
-62 72 -116 127 -120 122 -4 -4 -94 -356 -200 -780 -213 -854 -202 -823 -281
-823 -72 0 -33 -79 -599 1200 -213 479 -270 612 -270 625 0 47 52 95 102 95
34 0 54 -15 413 -304 182 -146 333 -266 337 -266 3 0 -99 316 -228 702 -129
387 -234 717 -234 734 0 38 31 80 66 88 62 16 72 7 337 -302 468 -547 457
-534 463 -518 3 9 70 273 149 588 129 516 146 575 170 595 28 25 70 29 108 12z"/>
<path d="M2442 3626 c-62 -245 -112 -448 -112 -451 0 -5 167 -202 210 -248 16
-17 22 -12 130 114 l114 132 -108 436 c-60 240 -112 442 -116 450 -4 7 -57
-188 -118 -433z"/>
<path d="M1826 3148 c90 -270 165 -492 167 -495 2 -2 30 101 62 229 52 208 56
235 44 255 -21 33 -412 490 -425 496 -7 3 62 -215 152 -485z"/>
<path d="M3290 3464 c-80 -93 -154 -180 -166 -194 -77 -89 -124 -146 -124
-153 0 -7 74 -307 101 -411 6 -21 12 -36 15 -33 3 2 54 150 115 328 61 178
133 389 160 469 27 79 48 148 46 154 -2 5 -68 -67 -147 -160z"/>
<path d="M1316 2718 c19 -45 41 -96 49 -112 31 -68 319 -717 352 -793 20 -46
39 -83 43 -83 4 0 40 129 79 287 58 232 69 289 59 298 -37 33 -607 485 -612
485 -3 0 11 -37 30 -82z"/>
<path d="M3540 2580 c-151 -121 -290 -232 -307 -248 l-33 -27 70 -280 c39
-154 73 -287 76 -295 5 -15 20 18 314 680 189 426 174 390 164 390 -5 -1 -133
-100 -284 -220z"/>
</g>
</svg>
