<svg id="Layer_1" data-name="Layer 1" xmlns="http://www.w3.org/2000/svg" xmlns:xlink="http://www.w3.org/1999/xlink" viewBox="0 0 512 512"><defs><linearGradient id="linear-gradient" x1="256" y1="461.74" x2="256" y2="64.22" gradientUnits="userSpaceOnUse"><stop offset="0" stop-color="#231f20"/><stop offset="1" stop-color="#58595b"/></linearGradient></defs><title>mail</title><path d="M509.74,420,321.15,260.67,510.62,94.44a25.9,25.9,0,0,1,1.38,8v307.2A24.88,24.88,0,0,1,509.74,420ZM25.59,435.2H486.42a25.16,25.16,0,0,0,7.94-1.39L305.59,274.32,281,295.87a40.3,40.3,0,0,1-52,0l-24.57-21.55-188.24,159A25.22,25.22,0,0,0,25.59,435.2ZM1,95.79a25.77,25.77,0,0,0-1,6.61v307.2a25.54,25.54,0,0,0,1.76,9.14L188.9,260.67ZM267.51,280.47,497,79.16a25.24,25.24,0,0,0-10.55-2.36H25.59a25.29,25.29,0,0,0-11.77,3L242.54,280.47C248.92,286.1,261.13,286.1,267.51,280.47Z" fill="url(#linear-gradient)"/></svg>