<svg xmlns="http://www.w3.org/2000/svg" width="31.883" height="31.883" viewBox="0 0 31.883 31.883">
  <g id="Page-2" transform="translate(0 -0.455)">
    <g id="Artboard-2" transform="translate(0 0.455)">
      <path id="round-information-blue" d="M2032.937,3691.455a15.942,15.942,0,1,0,15.946,15.937A15.938,15.938,0,0,0,2032.937,3691.455Zm3.321,24.708c-.823.322-1.476.567-1.963.737a5.109,5.109,0,0,1-1.7.258,3.38,3.38,0,0,1-2.319-.732,2.334,2.334,0,0,1-.823-1.845,7.019,7.019,0,0,1,.059-.889,10.361,10.361,0,0,1,.2-1.022l1.029-3.63c.091-.349.17-.678.229-.982a4.572,4.572,0,0,0,.093-.857,1.312,1.312,0,0,0-.29-.968,1.6,1.6,0,0,0-1.093-.27,3,3,0,0,0-.818.118c-.277.086-.513.165-.71.238l.27-1.113c.671-.277,1.317-.508,1.929-.7a5.634,5.634,0,0,1,1.741-.3,3.311,3.311,0,0,1,2.279.719,2.372,2.372,0,0,1,.8,1.857c0,.159-.02.435-.054.83a5.694,5.694,0,0,1-.2,1.095l-1.021,3.616c-.086.29-.158.626-.231,1a5.236,5.236,0,0,0-.1.844,1.223,1.223,0,0,0,.322.982,1.787,1.787,0,0,0,1.12.263,3.238,3.238,0,0,0,.843-.132,4.873,4.873,0,0,0,.685-.229Zm-.177-14.679a2.573,2.573,0,0,1-3.453,0,2.133,2.133,0,0,1-.719-1.614,2.156,2.156,0,0,1,.719-1.616,2.574,2.574,0,0,1,3.453,0,2.15,2.15,0,0,1,.712,1.616A2.127,2.127,0,0,1,2036.081,3701.484Z" transform="translate(-2017 -3691.455)" fill="#00abfd" fill-rule="evenodd"/>
    </g>
  </g>
</svg>
